<svg width="100" height="100" viewBox="0 0 100 100" fill="none" xmlns="http://www.w3.org/2000/svg">
<path d="M49.9984 93.6409C74.16 93.6409 93.7469 74.0541 93.7469 49.8925C93.7469 25.7309 74.16 6.14404 49.9984 6.14404C25.8368 6.14404 6.25 25.7309 6.25 49.8925C6.25 74.0541 25.8368 93.6409 49.9984 93.6409Z" fill="url(#paint0_radial_10_607)"/>
<path d="M49.9984 93.6409C74.16 93.6409 93.7469 74.0541 93.7469 49.8925C93.7469 25.7309 74.16 6.14404 49.9984 6.14404C25.8368 6.14404 6.25 25.7309 6.25 49.8925C6.25 74.0541 25.8368 93.6409 49.9984 93.6409Z" fill="url(#paint1_radial_10_607)"/>
<path d="M49.9984 93.6409C74.16 93.6409 93.7469 74.0541 93.7469 49.8925C93.7469 25.7309 74.16 6.14404 49.9984 6.14404C25.8368 6.14404 6.25 25.7309 6.25 49.8925C6.25 74.0541 25.8368 93.6409 49.9984 93.6409Z" fill="url(#paint2_radial_10_607)"/>
<path d="M49.9984 93.6409C74.16 93.6409 93.7469 74.0541 93.7469 49.8925C93.7469 25.7309 74.16 6.14404 49.9984 6.14404C25.8368 6.14404 6.25 25.7309 6.25 49.8925C6.25 74.0541 25.8368 93.6409 49.9984 93.6409Z" fill="url(#paint3_radial_10_607)"/>
<path d="M49.9984 93.6409C74.16 93.6409 93.7469 74.0541 93.7469 49.8925C93.7469 25.7309 74.16 6.14404 49.9984 6.14404C25.8368 6.14404 6.25 25.7309 6.25 49.8925C6.25 74.0541 25.8368 93.6409 49.9984 93.6409Z" fill="url(#paint4_radial_10_607)"/>
<path d="M49.9984 93.6409C74.16 93.6409 93.7469 74.0541 93.7469 49.8925C93.7469 25.7309 74.16 6.14404 49.9984 6.14404C25.8368 6.14404 6.25 25.7309 6.25 49.8925C6.25 74.0541 25.8368 93.6409 49.9984 93.6409Z" fill="url(#paint5_radial_10_607)"/>
<path d="M49.9984 93.6409C74.16 93.6409 93.7469 74.0541 93.7469 49.8925C93.7469 25.7309 74.16 6.14404 49.9984 6.14404C25.8368 6.14404 6.25 25.7309 6.25 49.8925C6.25 74.0541 25.8368 93.6409 49.9984 93.6409Z" fill="url(#paint6_radial_10_607)"/>
<g filter="url(#filter0_f_10_607)">
<path d="M92.8116 53.2322C92.3897 53.1619 91.9563 53.125 91.5144 53.125C87.205 53.125 83.7116 56.6184 83.7116 60.9278C83.7116 64.3956 85.9741 67.3353 89.1035 68.3509" stroke="url(#paint7_linear_10_607)" stroke-width="0.2"/>
</g>
<path d="M93.6078 53.4091C93.1816 58.7678 91.7897 63.8547 89.606 68.4956C86.2191 67.6441 83.7116 64.5788 83.7116 60.9278C83.7116 56.6184 87.205 53.125 91.5144 53.125C92.2394 53.125 92.9416 53.2241 93.6078 53.4091Z" fill="url(#paint8_radial_10_607)"/>
<path d="M93.6078 53.4091C93.1816 58.7678 91.7897 63.8547 89.606 68.4956C86.2191 67.6441 83.7116 64.5788 83.7116 60.9278C83.7116 56.6184 87.205 53.125 91.5144 53.125C92.2394 53.125 92.9416 53.2241 93.6078 53.4091Z" fill="url(#paint9_radial_10_607)"/>
<path d="M93.6078 53.4091C93.1816 58.7678 91.7897 63.8547 89.606 68.4956C86.2191 67.6441 83.7116 64.5788 83.7116 60.9278C83.7116 56.6184 87.205 53.125 91.5144 53.125C92.2394 53.125 92.9416 53.2241 93.6078 53.4091Z" fill="url(#paint10_radial_10_607)"/>
<g filter="url(#filter1_f_10_607)">
<path d="M61.8144 90.9119C61.2206 89.5306 60.8919 88.0087 60.8919 86.41C60.8919 80.1084 66 75 72.3016 75C75.9028 75 79.1144 76.6684 81.2053 79.2741" stroke="url(#paint11_linear_10_607)" stroke-width="0.2"/>
</g>
<path d="M81.7409 79.9981C76.4916 85.5312 69.8106 89.6928 62.2916 91.89C61.3991 90.2638 60.8919 88.3959 60.8919 86.41C60.8919 80.1084 66 75 72.3016 75C76.2259 75 79.6878 76.9812 81.7409 79.9981Z" fill="url(#paint12_radial_10_607)"/>
<path d="M81.7409 79.9981C76.4916 85.5312 69.8106 89.6928 62.2916 91.89C61.3991 90.2638 60.8919 88.3959 60.8919 86.41C60.8919 80.1084 66 75 72.3016 75C76.2259 75 79.6878 76.9812 81.7409 79.9981Z" fill="url(#paint13_radial_10_607)"/>
<path d="M81.7409 79.9981C76.4916 85.5312 69.8106 89.6928 62.2916 91.89C61.3991 90.2638 60.8919 88.3959 60.8919 86.41C60.8919 80.1084 66 75 72.3016 75C76.2259 75 79.6878 76.9812 81.7409 79.9981Z" fill="url(#paint14_radial_10_607)"/>
<path d="M81.7409 79.9981C76.4916 85.5312 69.8106 89.6928 62.2916 91.89C61.3991 90.2638 60.8919 88.3959 60.8919 86.41C60.8919 80.1084 66 75 72.3016 75C76.2259 75 79.6878 76.9812 81.7409 79.9981Z" fill="url(#paint15_radial_10_607)"/>
<g filter="url(#filter2_f_10_607)">
<path d="M46.2169 70.6718C49.4997 73.2418 50.3944 77.5818 48.2153 80.3646C46.0363 83.1478 41.6088 83.3203 38.326 80.75C35.0431 78.1796 34.1485 73.84 36.3275 71.0568C38.5066 68.274 42.9341 68.1015 46.2169 70.6718Z" stroke="url(#paint16_linear_10_607)" stroke-width="0.2"/>
</g>
<path d="M46.2169 70.6718C49.4997 73.2418 50.3944 77.5818 48.2153 80.3646C46.0363 83.1478 41.6088 83.3203 38.326 80.75C35.0431 78.1796 34.1485 73.84 36.3275 71.0568C38.5066 68.274 42.9341 68.1015 46.2169 70.6718Z" fill="url(#paint17_radial_10_607)"/>
<path d="M46.2169 70.6718C49.4997 73.2418 50.3944 77.5818 48.2153 80.3646C46.0363 83.1478 41.6088 83.3203 38.326 80.75C35.0431 78.1796 34.1485 73.84 36.3275 71.0568C38.5066 68.274 42.9341 68.1015 46.2169 70.6718Z" fill="url(#paint18_radial_10_607)"/>
<path d="M46.2169 70.6718C49.4997 73.2418 50.3944 77.5818 48.2153 80.3646C46.0363 83.1478 41.6088 83.3203 38.326 80.75C35.0431 78.1796 34.1485 73.84 36.3275 71.0568C38.5066 68.274 42.9341 68.1015 46.2169 70.6718Z" fill="url(#paint19_radial_10_607)"/>
<path d="M46.2169 70.6718C49.4997 73.2418 50.3944 77.5818 48.2153 80.3646C46.0363 83.1478 41.6088 83.3203 38.326 80.75C35.0431 78.1796 34.1485 73.84 36.3275 71.0568C38.5066 68.274 42.9341 68.1015 46.2169 70.6718Z" fill="url(#paint20_radial_10_607)"/>
<g filter="url(#filter3_f_10_607)">
<path d="M7.23381 47.1697C8.06531 46.9769 8.93165 46.875 9.82178 46.875C16.1233 46.875 21.2317 51.9834 21.2317 58.285C21.2317 63.9256 17.1387 68.6103 11.7607 69.5309" stroke="url(#paint21_linear_10_607)" stroke-width="0.2"/>
</g>
<path d="M6.31853 47.4228C7.42237 47.0672 8.59969 46.875 9.82191 46.875C16.1234 46.875 21.2318 51.9834 21.2318 58.285C21.2318 64.2059 16.7219 69.0734 10.9499 69.64C7.94391 63.7075 6.25 56.9978 6.25 49.8925C6.25 49.0638 6.27303 48.2403 6.31853 47.4228Z" fill="url(#paint22_radial_10_607)"/>
<path d="M6.31853 47.4228C7.42237 47.0672 8.59969 46.875 9.82191 46.875C16.1234 46.875 21.2318 51.9834 21.2318 58.285C21.2318 64.2059 16.7219 69.0734 10.9499 69.64C7.94391 63.7075 6.25 56.9978 6.25 49.8925C6.25 49.0638 6.27303 48.2403 6.31853 47.4228Z" fill="url(#paint23_radial_10_607)"/>
<path d="M6.31853 47.4228C7.42237 47.0672 8.59969 46.875 9.82191 46.875C16.1234 46.875 21.2318 51.9834 21.2318 58.285C21.2318 64.2059 16.7219 69.0734 10.9499 69.64C7.94391 63.7075 6.25 56.9978 6.25 49.8925C6.25 49.0638 6.27303 48.2403 6.31853 47.4228Z" fill="url(#paint24_radial_10_607)"/>
<g filter="url(#filter4_f_10_607)">
<path d="M48.4141 25.0004C52.7235 25.0004 56.2169 21.507 56.2169 17.1976C56.2169 12.8882 52.7235 9.39484 48.4141 9.39484C44.1047 9.39484 40.6113 12.8882 40.6113 17.1976C40.6113 21.507 44.1047 25.0004 48.4141 25.0004Z" stroke="url(#paint25_linear_10_607)" stroke-width="0.3"/>
</g>
<path d="M48.4141 25.0004C52.7235 25.0004 56.2169 21.507 56.2169 17.1976C56.2169 12.8882 52.7235 9.39484 48.4141 9.39484C44.1047 9.39484 40.6113 12.8882 40.6113 17.1976C40.6113 21.507 44.1047 25.0004 48.4141 25.0004Z" fill="url(#paint26_linear_10_607)"/>
<path d="M48.4141 25.0004C52.7235 25.0004 56.2169 21.507 56.2169 17.1976C56.2169 12.8882 52.7235 9.39484 48.4141 9.39484C44.1047 9.39484 40.6113 12.8882 40.6113 17.1976C40.6113 21.507 44.1047 25.0004 48.4141 25.0004Z" fill="url(#paint27_radial_10_607)"/>
<path d="M48.4141 25.0004C52.7235 25.0004 56.2169 21.507 56.2169 17.1976C56.2169 12.8882 52.7235 9.39484 48.4141 9.39484C44.1047 9.39484 40.6113 12.8882 40.6113 17.1976C40.6113 21.507 44.1047 25.0004 48.4141 25.0004Z" fill="url(#paint28_radial_10_607)"/>
<g filter="url(#filter5_f_10_607)">
<path d="M23.9388 44.8698C24.3967 46.7668 25.7122 50.3705 29.9129 51.4104C30.5391 51.5655 31.1545 51.6781 31.7718 51.7631C31.8018 51.7672 31.8319 51.7708 31.8621 51.7735C40.8734 52.6181 46.8306 45.0008 47.1214 36.7136C47.1457 36.0269 47.6744 35.446 48.3616 35.437C48.7275 35.4324 49.107 35.4328 49.4976 35.4397C50.182 35.4517 50.7072 36.0308 50.7315 36.7149C51.0258 45.0016 56.9774 52.6183 65.9904 51.7735C66.0206 51.7708 66.0507 51.7672 66.0807 51.7631C66.6979 51.6781 67.3136 51.5655 67.9396 51.4104C73.5046 50.0326 76.9569 46.375 78.7223 42.4519C78.4485 40.7922 78.0585 39.1842 77.5526 37.6411C77.0243 42.2533 74.5547 42.8356 67.9396 44.4733C67.3952 44.6081 65.5345 45.9053 64.9794 45.9819C58.6999 46.5705 56.9338 42.4519 53.3744 35.8755L53.3739 35.8102C53.3739 35.7799 53.3742 35.7497 53.3748 35.7196C53.6052 35.7497 53.837 35.7826 54.0693 35.8184L54.642 32.1021C55.3039 31.2492 56.1885 30.5781 57.2089 30.1766C57.4488 30.073 58.0095 29.8376 59.7435 29.5143C61.5326 29.1807 66.3088 29.1845 69.2238 29.1869L69.8744 29.1872C71.4135 29.1872 72.8113 29.6341 73.7141 30.0428C72.9767 29.0273 72.1647 28.0683 71.2785 27.1723C70.8182 27.1224 70.3468 27.094 69.8744 27.094L69.2158 27.0937C67.7632 27.0925 65.8207 27.091 64.0138 27.132C62.2635 27.1717 59.6705 27.2833 58.5806 27.4865C56.7785 27.8224 56.0516 28.0916 55.6308 28.2715C54.4735 28.7326 53.4797 29.4435 52.6951 30.3398C52.1794 30.929 51.4486 31.3224 50.6662 31.2878C49.4101 31.2321 48.2289 31.2385 47.1714 31.2813C46.3929 31.3128 45.667 30.921 45.1534 30.3352C44.3695 29.4411 43.3771 28.7318 42.2218 28.2715C41.8009 28.0916 41.0739 27.8224 39.2721 27.4865C38.1822 27.2833 35.589 27.1717 33.8386 27.132C32.0319 27.091 30.0893 27.0925 28.6367 27.0937L28.6098 27.0937C27.916 27.7888 27.2673 28.5224 26.6637 29.2912C27.0836 29.226 27.5248 29.1872 27.9782 29.1872L28.6287 29.1869C31.5438 29.1845 36.3199 29.1807 38.1089 29.5143C39.8431 29.8376 40.4039 30.073 40.6436 30.1766C41.6265 30.5634 42.4833 31.2001 43.1364 32.0086L43.8518 35.8067C44.0224 35.7746 44.2324 35.7405 44.4777 35.7062C44.4781 35.7409 44.4785 35.7755 44.4785 35.8102L44.4781 35.8755C44.8542 44.6898 38.1416 50.0023 31.8621 49.4137C31.307 49.3371 30.765 49.2374 30.2205 49.1026C25.4093 47.9114 25.7589 44.377 24.3967 41.0106C24.155 42.247 24.0484 43.577 23.9388 44.8698Z" fill="url(#paint29_linear_10_607)"/>
</g>
<path fill-rule="evenodd" clip-rule="evenodd" d="M43.2954 26.1782C44.4509 26.6386 45.4432 27.3478 46.2271 28.2419C46.7408 28.8277 47.4667 29.2196 48.2452 29.1881C49.3027 29.1452 50.4839 29.1389 51.74 29.1945C52.5224 29.2292 53.2531 28.8358 53.7689 28.2465C54.5534 27.3503 55.5473 26.6394 56.7044 26.1782C57.1253 25.9984 57.8523 25.7292 59.6541 25.3932C60.744 25.19 63.3373 25.0784 65.0876 25.0387C66.8943 24.9977 68.837 24.9993 70.2896 25.0004L70.9479 25.0008C73.4376 25.0008 75.8937 25.7874 76.8679 26.3744C79.0591 27.4865 81.0869 29.6123 81.2324 33.2706C81.2383 33.3254 81.2422 33.3805 81.2439 33.436C81.4166 39.0632 77.9222 47.1115 69.0134 49.3171C68.3871 49.4722 67.7717 49.5848 67.1544 49.6698C67.1245 49.674 67.0944 49.6776 67.0642 49.6803C58.0512 50.5251 52.0996 42.9084 51.8053 34.6216C51.781 33.9375 51.2558 33.3584 50.5714 33.3464C50.1808 33.3396 49.8013 33.3391 49.4354 33.3438C48.7482 33.3527 48.2194 33.9336 48.1952 34.6204C47.9044 42.9076 41.947 50.5249 32.9358 49.6803C32.9057 49.6776 32.8756 49.674 32.8456 49.6698C32.2283 49.5848 31.6128 49.4722 30.9866 49.3171C22.0778 47.1115 18.5835 39.0632 18.7561 33.436C18.7578 33.3805 18.7617 33.3254 18.7677 33.2706C18.9131 29.6123 20.9409 27.4865 23.1322 26.3744C24.1062 25.7874 26.5624 25.0008 29.052 25.0008L29.7105 25.0004C31.163 24.9993 33.1057 24.9977 34.9123 25.0387C36.6628 25.0784 39.2558 25.19 40.3457 25.3932C42.1477 25.7292 42.8747 25.9984 43.2954 26.1782ZM21.7221 31.4084C22.2451 30.1344 23.2161 29.0933 24.5231 28.3055C25.2581 27.8626 27.0334 27.094 29.052 27.094L29.7025 27.0936C32.6175 27.0913 37.3937 27.0875 39.1827 27.421C40.9169 27.7443 41.4777 27.9798 41.7174 28.0833C42.7001 28.4701 43.5571 29.1069 44.2101 29.9153L44.9254 33.7135C45.0962 33.6814 45.3061 33.6472 45.5513 33.6131C45.5519 33.6476 45.5523 33.6823 45.5523 33.717L45.5519 33.7823C45.928 42.5965 39.2154 47.909 32.9359 47.3204C32.3807 47.2438 31.8388 47.1442 31.2943 47.0094C24.6792 45.3717 21.902 40.16 21.3736 35.5479C21.2923 34.8376 21.2642 34.1415 21.2837 33.4749L21.2843 33.4562L21.2885 33.4564L21.2893 33.436C21.3184 32.7063 21.467 32.0297 21.7221 31.4084ZM54.4484 33.6264C54.4479 33.6565 54.4477 33.6867 54.4477 33.717L54.4482 33.7823C54.072 42.5965 60.7847 47.909 67.0642 47.3204C67.6193 47.2438 68.1613 47.1442 68.7057 47.0094C75.3208 45.3717 78.0981 40.16 78.6264 35.5479C78.7078 34.8376 78.7359 34.1415 78.7164 33.4749L78.7158 33.4562L78.7116 33.4564L78.7107 33.436C78.6816 32.7063 78.533 32.0297 78.2779 31.4084C77.7548 30.1344 76.784 29.0933 75.477 28.3055C74.7418 27.8626 72.9666 27.094 70.9479 27.094L70.2976 27.0936C67.3824 27.0913 62.6064 27.0875 60.8173 27.421C59.0831 27.7443 58.5223 27.9798 58.2827 28.0833C57.2622 28.4849 56.3774 29.156 55.7158 30.0088L55.1431 33.7252C54.9107 33.6894 54.679 33.6565 54.4484 33.6264Z" fill="url(#paint30_radial_10_607)"/>
<path fill-rule="evenodd" clip-rule="evenodd" d="M43.2954 26.1782C44.4509 26.6386 45.4432 27.3478 46.2271 28.2419C46.7408 28.8277 47.4667 29.2196 48.2452 29.1881C49.3027 29.1452 50.4839 29.1389 51.74 29.1945C52.5224 29.2292 53.2531 28.8358 53.7689 28.2465C54.5534 27.3503 55.5473 26.6394 56.7044 26.1782C57.1253 25.9984 57.8523 25.7292 59.6541 25.3932C60.744 25.19 63.3373 25.0784 65.0876 25.0387C66.8943 24.9977 68.837 24.9993 70.2896 25.0004L70.9479 25.0008C73.4376 25.0008 75.8937 25.7874 76.8679 26.3744C79.0591 27.4865 81.0869 29.6123 81.2324 33.2706C81.2383 33.3254 81.2422 33.3805 81.2439 33.436C81.4166 39.0632 77.9222 47.1115 69.0134 49.3171C68.3871 49.4722 67.7717 49.5848 67.1544 49.6698C67.1245 49.674 67.0944 49.6776 67.0642 49.6803C58.0512 50.5251 52.0996 42.9084 51.8053 34.6216C51.781 33.9375 51.2558 33.3584 50.5714 33.3464C50.1808 33.3396 49.8013 33.3391 49.4354 33.3438C48.7482 33.3527 48.2194 33.9336 48.1952 34.6204C47.9044 42.9076 41.947 50.5249 32.9358 49.6803C32.9057 49.6776 32.8756 49.674 32.8456 49.6698C32.2283 49.5848 31.6128 49.4722 30.9866 49.3171C22.0778 47.1115 18.5835 39.0632 18.7561 33.436C18.7578 33.3805 18.7617 33.3254 18.7677 33.2706C18.9131 29.6123 20.9409 27.4865 23.1322 26.3744C24.1062 25.7874 26.5624 25.0008 29.052 25.0008L29.7105 25.0004C31.163 24.9993 33.1057 24.9977 34.9123 25.0387C36.6628 25.0784 39.2558 25.19 40.3457 25.3932C42.1477 25.7292 42.8747 25.9984 43.2954 26.1782ZM21.7221 31.4084C22.2451 30.1344 23.2161 29.0933 24.5231 28.3055C25.2581 27.8626 27.0334 27.094 29.052 27.094L29.7025 27.0936C32.6175 27.0913 37.3937 27.0875 39.1827 27.421C40.9169 27.7443 41.4777 27.9798 41.7174 28.0833C42.7001 28.4701 43.5571 29.1069 44.2101 29.9153L44.9254 33.7135C45.0962 33.6814 45.3061 33.6472 45.5513 33.6131C45.5519 33.6476 45.5523 33.6823 45.5523 33.717L45.5519 33.7823C45.928 42.5965 39.2154 47.909 32.9359 47.3204C32.3807 47.2438 31.8388 47.1442 31.2943 47.0094C24.6792 45.3717 21.902 40.16 21.3736 35.5479C21.2923 34.8376 21.2642 34.1415 21.2837 33.4749L21.2843 33.4562L21.2885 33.4564L21.2893 33.436C21.3184 32.7063 21.467 32.0297 21.7221 31.4084ZM54.4484 33.6264C54.4479 33.6565 54.4477 33.6867 54.4477 33.717L54.4482 33.7823C54.072 42.5965 60.7847 47.909 67.0642 47.3204C67.6193 47.2438 68.1613 47.1442 68.7057 47.0094C75.3208 45.3717 78.0981 40.16 78.6264 35.5479C78.7078 34.8376 78.7359 34.1415 78.7164 33.4749L78.7158 33.4562L78.7116 33.4564L78.7107 33.436C78.6816 32.7063 78.533 32.0297 78.2779 31.4084C77.7548 30.1344 76.784 29.0933 75.477 28.3055C74.7418 27.8626 72.9666 27.094 70.9479 27.094L70.2976 27.0936C67.3824 27.0913 62.6064 27.0875 60.8173 27.421C59.0831 27.7443 58.5223 27.9798 58.2827 28.0833C57.2622 28.4849 56.3774 29.156 55.7158 30.0088L55.1431 33.7252C54.9107 33.6894 54.679 33.6565 54.4484 33.6264Z" fill="url(#paint31_radial_10_607)"/>
<path fill-rule="evenodd" clip-rule="evenodd" d="M43.2954 26.1782C44.4509 26.6386 45.4432 27.3478 46.2271 28.2419C46.7408 28.8277 47.4667 29.2196 48.2452 29.1881C49.3027 29.1452 50.4839 29.1389 51.74 29.1945C52.5224 29.2292 53.2531 28.8358 53.7689 28.2465C54.5534 27.3503 55.5473 26.6394 56.7044 26.1782C57.1253 25.9984 57.8523 25.7292 59.6541 25.3932C60.744 25.19 63.3373 25.0784 65.0876 25.0387C66.8943 24.9977 68.837 24.9993 70.2896 25.0004L70.9479 25.0008C73.4376 25.0008 75.8937 25.7874 76.8679 26.3744C79.0591 27.4865 81.0869 29.6123 81.2324 33.2706C81.2383 33.3254 81.2422 33.3805 81.2439 33.436C81.4166 39.0632 77.9222 47.1115 69.0134 49.3171C68.3871 49.4722 67.7717 49.5848 67.1544 49.6698C67.1245 49.674 67.0944 49.6776 67.0642 49.6803C58.0512 50.5251 52.0996 42.9084 51.8053 34.6216C51.781 33.9375 51.2558 33.3584 50.5714 33.3464C50.1808 33.3396 49.8013 33.3391 49.4354 33.3438C48.7482 33.3527 48.2194 33.9336 48.1952 34.6204C47.9044 42.9076 41.947 50.5249 32.9358 49.6803C32.9057 49.6776 32.8756 49.674 32.8456 49.6698C32.2283 49.5848 31.6128 49.4722 30.9866 49.3171C22.0778 47.1115 18.5835 39.0632 18.7561 33.436C18.7578 33.3805 18.7617 33.3254 18.7677 33.2706C18.9131 29.6123 20.9409 27.4865 23.1322 26.3744C24.1062 25.7874 26.5624 25.0008 29.052 25.0008L29.7105 25.0004C31.163 24.9993 33.1057 24.9977 34.9123 25.0387C36.6628 25.0784 39.2558 25.19 40.3457 25.3932C42.1477 25.7292 42.8747 25.9984 43.2954 26.1782ZM21.7221 31.4084C22.2451 30.1344 23.2161 29.0933 24.5231 28.3055C25.2581 27.8626 27.0334 27.094 29.052 27.094L29.7025 27.0936C32.6175 27.0913 37.3937 27.0875 39.1827 27.421C40.9169 27.7443 41.4777 27.9798 41.7174 28.0833C42.7001 28.4701 43.5571 29.1069 44.2101 29.9153L44.9254 33.7135C45.0962 33.6814 45.3061 33.6472 45.5513 33.6131C45.5519 33.6476 45.5523 33.6823 45.5523 33.717L45.5519 33.7823C45.928 42.5965 39.2154 47.909 32.9359 47.3204C32.3807 47.2438 31.8388 47.1442 31.2943 47.0094C24.6792 45.3717 21.902 40.16 21.3736 35.5479C21.2923 34.8376 21.2642 34.1415 21.2837 33.4749L21.2843 33.4562L21.2885 33.4564L21.2893 33.436C21.3184 32.7063 21.467 32.0297 21.7221 31.4084ZM54.4484 33.6264C54.4479 33.6565 54.4477 33.6867 54.4477 33.717L54.4482 33.7823C54.072 42.5965 60.7847 47.909 67.0642 47.3204C67.6193 47.2438 68.1613 47.1442 68.7057 47.0094C75.3208 45.3717 78.0981 40.16 78.6264 35.5479C78.7078 34.8376 78.7359 34.1415 78.7164 33.4749L78.7158 33.4562L78.7116 33.4564L78.7107 33.436C78.6816 32.7063 78.533 32.0297 78.2779 31.4084C77.7548 30.1344 76.784 29.0933 75.477 28.3055C74.7418 27.8626 72.9666 27.094 70.9479 27.094L70.2976 27.0936C67.3824 27.0913 62.6064 27.0875 60.8173 27.421C59.0831 27.7443 58.5223 27.9798 58.2827 28.0833C57.2622 28.4849 56.3774 29.156 55.7158 30.0088L55.1431 33.7252C54.9107 33.6894 54.679 33.6565 54.4484 33.6264Z" fill="url(#paint32_radial_10_607)"/>
<path d="M24.5232 28.3056C25.2582 27.8626 27.0335 27.094 29.0521 27.094C29.2558 27.094 29.4734 27.0939 29.7025 27.0937C32.6176 27.0913 37.3937 27.0875 39.1827 27.4211C40.9169 27.7444 41.4777 27.9798 41.7176 28.0834C43.9636 28.9673 45.5523 31.1572 45.5523 33.717L45.5519 33.7823C45.928 42.5966 39.2156 47.9091 32.9359 47.3205C32.3808 47.2439 31.8388 47.1442 31.2944 47.0094C23.6505 45.117 21.1311 38.4527 21.2844 33.4554L21.2886 33.4564C21.3709 31.2207 22.5728 29.4812 24.5232 28.3056Z" fill="url(#paint33_radial_10_607)"/>
<path d="M24.5232 28.3056C25.2582 27.8626 27.0335 27.094 29.0521 27.094C29.2558 27.094 29.4734 27.0939 29.7025 27.0937C32.6176 27.0913 37.3937 27.0875 39.1827 27.4211C40.9169 27.7444 41.4777 27.9798 41.7176 28.0834C43.9636 28.9673 45.5523 31.1572 45.5523 33.717L45.5519 33.7823C45.928 42.5966 39.2156 47.9091 32.9359 47.3205C32.3808 47.2439 31.8388 47.1442 31.2944 47.0094C23.6505 45.117 21.1311 38.4527 21.2844 33.4554L21.2886 33.4564C21.3709 31.2207 22.5728 29.4812 24.5232 28.3056Z" fill="url(#paint34_radial_10_607)"/>
<path d="M24.5232 28.3056C25.2582 27.8626 27.0335 27.094 29.0521 27.094C29.2558 27.094 29.4734 27.0939 29.7025 27.0937C32.6176 27.0913 37.3937 27.0875 39.1827 27.4211C40.9169 27.7444 41.4777 27.9798 41.7176 28.0834C43.9636 28.9673 45.5523 31.1572 45.5523 33.717L45.5519 33.7823C45.928 42.5966 39.2156 47.9091 32.9359 47.3205C32.3808 47.2439 31.8388 47.1442 31.2944 47.0094C23.6505 45.117 21.1311 38.4527 21.2844 33.4554L21.2886 33.4564C21.3709 31.2207 22.5728 29.4812 24.5232 28.3056Z" fill="url(#paint35_radial_10_607)"/>
<path d="M24.5232 28.3056C25.2582 27.8626 27.0335 27.094 29.0521 27.094C29.2558 27.094 29.4734 27.0939 29.7025 27.0937C32.6176 27.0913 37.3937 27.0875 39.1827 27.4211C40.9169 27.7444 41.4777 27.9798 41.7176 28.0834C43.9636 28.9673 45.5523 31.1572 45.5523 33.717L45.5519 33.7823C45.928 42.5966 39.2156 47.9091 32.9359 47.3205C32.3808 47.2439 31.8388 47.1442 31.2944 47.0094C23.6505 45.117 21.1311 38.4527 21.2844 33.4554L21.2886 33.4564C21.3709 31.2207 22.5728 29.4812 24.5232 28.3056Z" fill="url(#paint36_radial_10_607)"/>
<path d="M41.5424 36.9941C43.0964 36.24 43.5875 34.0444 42.6392 32.09C41.6909 30.1356 39.6624 29.1625 38.1083 29.9166C36.5543 30.6706 36.0632 32.8663 37.0115 34.8207C37.9598 36.775 39.9883 37.7481 41.5424 36.9941Z" fill="url(#paint37_linear_10_607)"/>
<path d="M75.477 28.3056C74.7419 27.8626 72.9666 27.094 70.948 27.094C70.7443 27.094 70.5266 27.0939 70.2976 27.0937C67.3824 27.0913 62.6064 27.0875 60.8173 27.4211C59.0831 27.7444 58.5224 27.9798 58.2827 28.0834C56.0365 28.9673 54.4478 31.1572 54.4478 33.717L54.4482 33.7823C54.072 42.5966 60.7847 47.9091 67.0643 47.3205C67.6194 47.2439 68.1613 47.1442 68.7057 47.0094C76.3497 45.117 78.869 38.4527 78.7158 33.4554L78.7116 33.4564C78.6291 31.2207 77.4274 29.4812 75.477 28.3056Z" fill="url(#paint38_radial_10_607)"/>
<path d="M75.477 28.3056C74.7419 27.8626 72.9666 27.094 70.948 27.094C70.7443 27.094 70.5266 27.0939 70.2976 27.0937C67.3824 27.0913 62.6064 27.0875 60.8173 27.4211C59.0831 27.7444 58.5224 27.9798 58.2827 28.0834C56.0365 28.9673 54.4478 31.1572 54.4478 33.717L54.4482 33.7823C54.072 42.5966 60.7847 47.9091 67.0643 47.3205C67.6194 47.2439 68.1613 47.1442 68.7057 47.0094C76.3497 45.117 78.869 38.4527 78.7158 33.4554L78.7116 33.4564C78.6291 31.2207 77.4274 29.4812 75.477 28.3056Z" fill="url(#paint39_radial_10_607)"/>
<path d="M75.477 28.3056C74.7419 27.8626 72.9666 27.094 70.948 27.094C70.7443 27.094 70.5266 27.0939 70.2976 27.0937C67.3824 27.0913 62.6064 27.0875 60.8173 27.4211C59.0831 27.7444 58.5224 27.9798 58.2827 28.0834C56.0365 28.9673 54.4478 31.1572 54.4478 33.717L54.4482 33.7823C54.072 42.5966 60.7847 47.9091 67.0643 47.3205C67.6194 47.2439 68.1613 47.1442 68.7057 47.0094C76.3497 45.117 78.869 38.4527 78.7158 33.4554L78.7116 33.4564C78.6291 31.2207 77.4274 29.4812 75.477 28.3056Z" fill="url(#paint40_radial_10_607)"/>
<path d="M75.477 28.3056C74.7419 27.8626 72.9666 27.094 70.948 27.094C70.7443 27.094 70.5266 27.0939 70.2976 27.0937C67.3824 27.0913 62.6064 27.0875 60.8173 27.4211C59.0831 27.7444 58.5224 27.9798 58.2827 28.0834C56.0365 28.9673 54.4478 31.1572 54.4478 33.717L54.4482 33.7823C54.072 42.5966 60.7847 47.9091 67.0643 47.3205C67.6194 47.2439 68.1613 47.1442 68.7057 47.0094C76.3497 45.117 78.869 38.4527 78.7158 33.4554L78.7116 33.4564C78.6291 31.2207 77.4274 29.4812 75.477 28.3056Z" fill="url(#paint41_radial_10_607)"/>
<path d="M75.105 36.9941C76.659 36.24 77.1501 34.0444 76.2018 32.09C75.2535 30.1356 73.2249 29.1625 71.6709 29.9166C70.1168 30.6706 69.6258 32.8663 70.5741 34.8207C71.5224 36.775 73.5509 37.7481 75.105 36.9941Z" fill="url(#paint42_linear_10_607)"/>
<g filter="url(#filter6_f_10_607)">
<path fill-rule="evenodd" clip-rule="evenodd" d="M32.4991 52.7885C33.4144 51.8732 34.8984 51.8732 35.8137 52.7885C42.5547 59.5294 53.4769 59.5294 60.2178 52.7885C61.1331 51.8732 62.6172 51.8732 63.5325 52.7885C64.4478 53.7038 64.4478 55.1875 63.5325 56.1028C54.9609 64.6744 41.0706 64.6744 32.4991 56.1028C31.5837 55.1875 31.5837 53.7038 32.4991 52.7885Z" fill="url(#paint43_linear_10_607)"/>
</g>
<path fill-rule="evenodd" clip-rule="evenodd" d="M34.0925 51.8119C35.0078 50.8966 36.4919 50.8966 37.4072 51.8119C44.1481 58.5528 55.0703 58.5528 61.8113 51.8119C62.7266 50.8966 64.2106 50.8966 65.1259 51.8119C66.0413 52.7272 66.0413 54.211 65.1259 55.1263C56.5544 63.6978 42.6641 63.6978 34.0925 55.1263C33.1772 54.211 33.1772 52.7272 34.0925 51.8119Z" fill="url(#paint44_linear_10_607)"/>
<g filter="url(#filter7_f_10_607)">
<path d="M36.3559 53.9047C38.245 55.8591 42.66 58.9766 49.7678 58.9766C56.8759 58.9766 62.2172 55.5332 63.455 53.9047" stroke="url(#paint45_linear_10_607)" stroke-width="0.5" stroke-linecap="round"/>
</g>
<defs>
<filter id="filter0_f_10_607" x="83.4116" y="52.825" width="9.61644" height="15.8211" filterUnits="userSpaceOnUse" color-interpolation-filters="sRGB">
<feFlood flood-opacity="0" result="BackgroundImageFix"/>
<feBlend mode="normal" in="SourceGraphic" in2="BackgroundImageFix" result="shape"/>
<feGaussianBlur stdDeviation="0.1" result="effect1_foregroundBlur_10_607"/>
</filter>
<filter id="filter1_f_10_607" x="60.5919" y="74.7" width="20.8914" height="16.4514" filterUnits="userSpaceOnUse" color-interpolation-filters="sRGB">
<feFlood flood-opacity="0" result="BackgroundImageFix"/>
<feBlend mode="normal" in="SourceGraphic" in2="BackgroundImageFix" result="shape"/>
<feGaussianBlur stdDeviation="0.1" result="effect1_foregroundBlur_10_607"/>
</filter>
<filter id="filter2_f_10_607" x="34.736" y="68.4516" width="15.0709" height="14.5186" filterUnits="userSpaceOnUse" color-interpolation-filters="sRGB">
<feFlood flood-opacity="0" result="BackgroundImageFix"/>
<feBlend mode="normal" in="SourceGraphic" in2="BackgroundImageFix" result="shape"/>
<feGaussianBlur stdDeviation="0.15" result="effect1_foregroundBlur_10_607"/>
</filter>
<filter id="filter3_f_10_607" x="6.91122" y="46.475" width="14.7205" height="23.4545" filterUnits="userSpaceOnUse" color-interpolation-filters="sRGB">
<feFlood flood-opacity="0" result="BackgroundImageFix"/>
<feBlend mode="normal" in="SourceGraphic" in2="BackgroundImageFix" result="shape"/>
<feGaussianBlur stdDeviation="0.15" result="effect1_foregroundBlur_10_607"/>
</filter>
<filter id="filter4_f_10_607" x="40.1613" y="8.94484" width="16.5056" height="16.5055" filterUnits="userSpaceOnUse" color-interpolation-filters="sRGB">
<feFlood flood-opacity="0" result="BackgroundImageFix"/>
<feBlend mode="normal" in="SourceGraphic" in2="BackgroundImageFix" result="shape"/>
<feGaussianBlur stdDeviation="0.15" result="effect1_foregroundBlur_10_607"/>
</filter>
<filter id="filter5_f_10_607" x="23.135" y="26.2895" width="56.3911" height="26.3521" filterUnits="userSpaceOnUse" color-interpolation-filters="sRGB">
<feFlood flood-opacity="0" result="BackgroundImageFix"/>
<feBlend mode="normal" in="SourceGraphic" in2="BackgroundImageFix" result="shape"/>
<feGaussianBlur stdDeviation="0.401893" result="effect1_foregroundBlur_10_607"/>
</filter>
<filter id="filter6_f_10_607" x="30.8126" y="51.102" width="34.4064" height="12.4295" filterUnits="userSpaceOnUse" color-interpolation-filters="sRGB">
<feFlood flood-opacity="0" result="BackgroundImageFix"/>
<feBlend mode="normal" in="SourceGraphic" in2="BackgroundImageFix" result="shape"/>
<feGaussianBlur stdDeviation="0.5" result="effect1_foregroundBlur_10_607"/>
</filter>
<filter id="filter7_f_10_607" x="35.6059" y="53.1547" width="28.5991" height="6.57188" filterUnits="userSpaceOnUse" color-interpolation-filters="sRGB">
<feFlood flood-opacity="0" result="BackgroundImageFix"/>
<feBlend mode="normal" in="SourceGraphic" in2="BackgroundImageFix" result="shape"/>
<feGaussianBlur stdDeviation="0.25" result="effect1_foregroundBlur_10_607"/>
</filter>
<radialGradient id="paint0_radial_10_607" cx="0" cy="0" r="1" gradientUnits="userSpaceOnUse" gradientTransform="translate(76.9431 29.8536) rotate(135.952) scale(68.3062 76.3959)">
<stop stop-color="#FFF6A6"/>
<stop offset="0.870037" stop-color="#F6B246"/>
</radialGradient>
<radialGradient id="paint1_radial_10_607" cx="0" cy="0" r="1" gradientUnits="userSpaceOnUse" gradientTransform="translate(73.535 61.2565) rotate(-155.287) scale(71.3584 84.7303)">
<stop offset="0.683178" stop-color="#BA9D76" stop-opacity="0"/>
<stop offset="1" stop-color="#BA9D76"/>
</radialGradient>
<radialGradient id="paint2_radial_10_607" cx="0" cy="0" r="1" gradientUnits="userSpaceOnUse" gradientTransform="translate(27.1278 87.0384) rotate(-54.4053) scale(43.0294 81.9269)">
<stop stop-color="#CA7044"/>
<stop offset="1" stop-color="#CA7044" stop-opacity="0"/>
</radialGradient>
<radialGradient id="paint3_radial_10_607" cx="0" cy="0" r="1" gradientUnits="userSpaceOnUse" gradientTransform="translate(54.8828 40.8203) rotate(99.7962) scale(55.1003 56.5209)">
<stop offset="0.863874" stop-color="#C07583" stop-opacity="0"/>
<stop offset="1" stop-color="#C07583"/>
</radialGradient>
<radialGradient id="paint4_radial_10_607" cx="0" cy="0" r="1" gradientUnits="userSpaceOnUse" gradientTransform="translate(72.6563 66.7969) rotate(97.8707) scale(27.0993 27.0993)">
<stop stop-color="#FFC94E"/>
<stop offset="1" stop-color="#FFC94E" stop-opacity="0"/>
</radialGradient>
<radialGradient id="paint5_radial_10_607" cx="0" cy="0" r="1" gradientUnits="userSpaceOnUse" gradientTransform="translate(25.9766 47.4609) rotate(46.5208) scale(15.6116)">
<stop stop-color="#EB7F4D"/>
<stop offset="0.959931" stop-color="#EB7F4D" stop-opacity="0"/>
</radialGradient>
<radialGradient id="paint6_radial_10_607" cx="0" cy="0" r="1" gradientUnits="userSpaceOnUse" gradientTransform="translate(72.0703 48.4375) rotate(110.659) scale(12.7328)">
<stop stop-color="#FFA95E"/>
<stop offset="1" stop-color="#FFB370" stop-opacity="0"/>
</radialGradient>
<linearGradient id="paint7_linear_10_607" x1="91.1131" y1="52.2459" x2="86.2303" y2="68.75" gradientUnits="userSpaceOnUse">
<stop stop-color="#F2BE70"/>
<stop offset="1" stop-color="#FFEC98"/>
</linearGradient>
<radialGradient id="paint8_radial_10_607" cx="0" cy="0" r="1" gradientUnits="userSpaceOnUse" gradientTransform="translate(82.4013 58.2237) rotate(14.7248) scale(6.47084 14.2994)">
<stop stop-color="#FFE486"/>
<stop offset="1" stop-color="#FFD68B"/>
</radialGradient>
<radialGradient id="paint9_radial_10_607" cx="0" cy="0" r="1" gradientUnits="userSpaceOnUse" gradientTransform="translate(91.1185 61.6366) rotate(-112.782) scale(8.91956 10.1034)">
<stop offset="0.795257" stop-color="#E3B065" stop-opacity="0"/>
<stop offset="0.944024" stop-color="#E3B065"/>
</radialGradient>
<radialGradient id="paint10_radial_10_607" cx="0" cy="0" r="1" gradientUnits="userSpaceOnUse" gradientTransform="translate(92.4672 57.6366) rotate(118.811) scale(11.6538 10.0013)">
<stop offset="0.846426" stop-color="#FFF1A6" stop-opacity="0"/>
<stop offset="1" stop-color="#FFF1A6"/>
</radialGradient>
<linearGradient id="paint11_linear_10_607" x1="76.0747" y1="75" x2="58.6387" y2="88.2347" gradientUnits="userSpaceOnUse">
<stop stop-color="#DFA055"/>
<stop offset="1" stop-color="#E1945D"/>
</linearGradient>
<radialGradient id="paint12_radial_10_607" cx="0" cy="0" r="1" gradientUnits="userSpaceOnUse" gradientTransform="translate(71.3162 75) rotate(95.3771) scale(16.9648 25.4663)">
<stop stop-color="#FEB862"/>
<stop offset="1" stop-color="#D78B6C"/>
</radialGradient>
<radialGradient id="paint13_radial_10_607" cx="0" cy="0" r="1" gradientUnits="userSpaceOnUse" gradientTransform="translate(67.5375 75) rotate(61.633) scale(14.3561 37.5522)">
<stop offset="0.727047" stop-color="#D8A294" stop-opacity="0"/>
<stop offset="1" stop-color="#D8A294"/>
</radialGradient>
<radialGradient id="paint14_radial_10_607" cx="0" cy="0" r="1" gradientUnits="userSpaceOnUse" gradientTransform="translate(73.51 86.1591) rotate(155.573) scale(13.8588 12.2562)">
<stop offset="0.662245" stop-color="#EFA970" stop-opacity="0"/>
<stop offset="0.978537" stop-color="#EFA970"/>
</radialGradient>
<radialGradient id="paint15_radial_10_607" cx="0" cy="0" r="1" gradientUnits="userSpaceOnUse" gradientTransform="translate(70.7584 89.1838) rotate(-67.9692) scale(15.7094 16.2694)">
<stop offset="0.777969" stop-color="#C17967" stop-opacity="0"/>
<stop offset="0.950812" stop-color="#C17967"/>
</radialGradient>
<linearGradient id="paint16_linear_10_607" x1="46.3791" y1="71.0675" x2="38.2891" y2="80.6662" gradientUnits="userSpaceOnUse">
<stop stop-color="#D47C4B"/>
<stop offset="1" stop-color="#E28050"/>
</linearGradient>
<radialGradient id="paint17_radial_10_607" cx="0" cy="0" r="1" gradientUnits="userSpaceOnUse" gradientTransform="translate(43.2616 70.8009) rotate(99.8844) scale(11.9467 12.4266)">
<stop stop-color="#D97C5E"/>
<stop offset="1" stop-color="#F79965"/>
</radialGradient>
<radialGradient id="paint18_radial_10_607" cx="0" cy="0" r="1" gradientUnits="userSpaceOnUse" gradientTransform="translate(44.4656 71.6575) rotate(110.163) scale(11.6252 9.93838)">
<stop offset="0.742386" stop-color="#FFA969" stop-opacity="0"/>
<stop offset="1" stop-color="#FFA969"/>
</radialGradient>
<radialGradient id="paint19_radial_10_607" cx="0" cy="0" r="1" gradientUnits="userSpaceOnUse" gradientTransform="translate(41.1456 78.0115) rotate(-104.912) scale(10.8998 10.2806)">
<stop offset="0.625503" stop-color="#C16653" stop-opacity="0"/>
<stop offset="1" stop-color="#C16653"/>
</radialGradient>
<radialGradient id="paint20_radial_10_607" cx="0" cy="0" r="1" gradientUnits="userSpaceOnUse" gradientTransform="translate(49.4063 81.7071) rotate(-158.194) scale(7.68484 7.99356)">
<stop stop-color="#CE8050"/>
<stop offset="1" stop-color="#CE8050" stop-opacity="0"/>
</radialGradient>
<linearGradient id="paint21_linear_10_607" x1="14.2328" y1="46.875" x2="14.2328" y2="69.5309" gradientUnits="userSpaceOnUse">
<stop stop-color="#A2723B"/>
<stop offset="1" stop-color="#AC6E43"/>
</linearGradient>
<radialGradient id="paint22_radial_10_607" cx="0" cy="0" r="1" gradientUnits="userSpaceOnUse" gradientTransform="translate(5.03444 48.72) rotate(58.6636) scale(24.4927 16.119)">
<stop stop-color="#A98861"/>
<stop offset="1" stop-color="#B1724D"/>
</radialGradient>
<radialGradient id="paint23_radial_10_607" cx="0" cy="0" r="1" gradientUnits="userSpaceOnUse" gradientTransform="translate(9.02125 60.2159) rotate(-58.7652) scale(15.6026 14.2806)">
<stop offset="0.695704" stop-color="#9C6544" stop-opacity="0"/>
<stop offset="1" stop-color="#9C6544"/>
</radialGradient>
<radialGradient id="paint24_radial_10_607" cx="0" cy="0" r="1" gradientUnits="userSpaceOnUse" gradientTransform="translate(13.7409 53.8853) rotate(90) scale(15.7545 10.3682)">
<stop offset="0.821343" stop-color="#AF7D6F" stop-opacity="0"/>
<stop offset="1" stop-color="#AF7D6F"/>
</radialGradient>
<linearGradient id="paint25_linear_10_607" x1="46.1381" y1="17.1976" x2="56.2169" y2="17.1976" gradientUnits="userSpaceOnUse">
<stop stop-color="#FFE27E"/>
<stop offset="1" stop-color="#F1B966"/>
</linearGradient>
<linearGradient id="paint26_linear_10_607" x1="57.0313" y1="17.1976" x2="40.6113" y2="17.1976" gradientUnits="userSpaceOnUse">
<stop stop-color="#FFC770"/>
<stop offset="1" stop-color="#FFDF81"/>
</linearGradient>
<radialGradient id="paint27_radial_10_607" cx="0" cy="0" r="1" gradientUnits="userSpaceOnUse" gradientTransform="translate(46.4844 17.1976) scale(10.2539 12.3364)">
<stop offset="0.6" stop-color="#C59853" stop-opacity="0"/>
<stop offset="1" stop-color="#C59853"/>
</radialGradient>
<radialGradient id="paint28_radial_10_607" cx="0" cy="0" r="1" gradientUnits="userSpaceOnUse" gradientTransform="translate(56.2169 17.1976) rotate(180) scale(15.6055 11.8261)">
<stop offset="0.898995" stop-color="#FFF4A4" stop-opacity="0"/>
<stop offset="1" stop-color="#FFF4A4"/>
</radialGradient>
<linearGradient id="paint29_linear_10_607" x1="63.9984" y1="39.4656" x2="34.5628" y2="50.6916" gradientUnits="userSpaceOnUse">
<stop stop-color="#E78F00"/>
<stop offset="1" stop-color="#D07000"/>
</linearGradient>
<radialGradient id="paint30_radial_10_607" cx="0" cy="0" r="1" gradientUnits="userSpaceOnUse" gradientTransform="translate(60.7273 26.3581) rotate(78.8614) scale(25.7339 53.3265)">
<stop stop-color="#5F5B9B"/>
<stop offset="1" stop-color="#5C3085"/>
</radialGradient>
<radialGradient id="paint31_radial_10_607" cx="0" cy="0" r="1" gradientUnits="userSpaceOnUse" gradientTransform="translate(66.5167 37.3706) rotate(78.0636) scale(11.5425 12.9669)">
<stop offset="0.776042" stop-color="#77579C"/>
<stop offset="0.9375" stop-color="#77579C" stop-opacity="0"/>
</radialGradient>
<radialGradient id="paint32_radial_10_607" cx="0" cy="0" r="1" gradientUnits="userSpaceOnUse" gradientTransform="translate(62.2972 35.2542) rotate(-122.735) scale(9.79808 7.19233)">
<stop offset="0.769354" stop-color="#4E3D92"/>
<stop offset="1" stop-color="#534687" stop-opacity="0"/>
</radialGradient>
<radialGradient id="paint33_radial_10_607" cx="0" cy="0" r="1" gradientUnits="userSpaceOnUse" gradientTransform="translate(38.8801 33.2918) rotate(121.845) scale(12.3975 14.0838)">
<stop stop-color="#4C3D70"/>
<stop offset="1" stop-color="#361C5D"/>
</radialGradient>
<radialGradient id="paint34_radial_10_607" cx="0" cy="0" r="1" gradientUnits="userSpaceOnUse" gradientTransform="translate(36.3292 33.6189) rotate(87.1376) scale(15.7185 23.341)">
<stop offset="0.647365" stop-color="#5B2B84" stop-opacity="0"/>
<stop offset="1" stop-color="#5B2B84"/>
</radialGradient>
<radialGradient id="paint35_radial_10_607" cx="0" cy="0" r="1" gradientUnits="userSpaceOnUse" gradientTransform="translate(32.7969 49.4486) rotate(-99.5134) scale(24.142 23.9076)">
<stop offset="0.858612" stop-color="#2E1D57" stop-opacity="0"/>
<stop offset="1" stop-color="#20143D"/>
</radialGradient>
<radialGradient id="paint36_radial_10_607" cx="0" cy="0" r="1" gradientUnits="userSpaceOnUse" gradientTransform="translate(34.8247 32.049) rotate(102.225) scale(16.0632 15.0756)">
<stop offset="0.872281" stop-color="#2E1D57" stop-opacity="0"/>
<stop offset="1" stop-color="#20143D" stop-opacity="0.6"/>
</radialGradient>
<linearGradient id="paint37_linear_10_607" x1="39.8254" y1="30.3204" x2="40.0904" y2="37.5484" gradientUnits="userSpaceOnUse">
<stop stop-color="white"/>
<stop offset="0.973958" stop-color="white" stop-opacity="0"/>
</linearGradient>
<radialGradient id="paint38_radial_10_607" cx="0" cy="0" r="1" gradientUnits="userSpaceOnUse" gradientTransform="translate(68.1192 32.4415) rotate(121.289) scale(13.8546 20.8107)">
<stop stop-color="#4C3D70"/>
<stop offset="1" stop-color="#361C5D"/>
</radialGradient>
<radialGradient id="paint39_radial_10_607" cx="0" cy="0" r="1" gradientUnits="userSpaceOnUse" gradientTransform="translate(63.671 33.6189) rotate(92.8624) scale(15.7185 23.341)">
<stop offset="0.647365" stop-color="#5B2B84" stop-opacity="0"/>
<stop offset="1" stop-color="#5B2B84"/>
</radialGradient>
<radialGradient id="paint40_radial_10_607" cx="0" cy="0" r="1" gradientUnits="userSpaceOnUse" gradientTransform="translate(66.5776 46.636) rotate(-77.6023) scale(21.4987 21.2898)">
<stop offset="0.858612" stop-color="#2E1D57" stop-opacity="0"/>
<stop offset="1" stop-color="#20143D"/>
</radialGradient>
<radialGradient id="paint41_radial_10_607" cx="0" cy="0" r="1" gradientUnits="userSpaceOnUse" gradientTransform="translate(65.1754 32.049) rotate(77.7749) scale(16.0632 15.0756)">
<stop offset="0.872281" stop-color="#2E1D57" stop-opacity="0"/>
<stop offset="1" stop-color="#20143D" stop-opacity="0.6"/>
</radialGradient>
<linearGradient id="paint42_linear_10_607" x1="73.3879" y1="30.3204" x2="73.6529" y2="37.5484" gradientUnits="userSpaceOnUse">
<stop stop-color="white"/>
<stop offset="0.973958" stop-color="white" stop-opacity="0"/>
</linearGradient>
<linearGradient id="paint43_linear_10_607" x1="31.8128" y1="55.2738" x2="48.0159" y2="62.5316" gradientUnits="userSpaceOnUse">
<stop stop-color="#B2673E"/>
<stop offset="1" stop-color="#BA6E47"/>
</linearGradient>
<linearGradient id="paint44_linear_10_607" x1="49.6091" y1="55.595" x2="49.6091" y2="61.555" gradientUnits="userSpaceOnUse">
<stop stop-color="#4A393E"/>
<stop offset="1" stop-color="#391E47"/>
</linearGradient>
<linearGradient id="paint45_linear_10_607" x1="40.8506" y1="55.5335" x2="54.7259" y2="58.2694" gradientUnits="userSpaceOnUse">
<stop stop-color="#463E4C"/>
<stop offset="1" stop-color="#4F425A"/>
</linearGradient>
</defs>
</svg>
